<svg xmlns="http://www.w3.org/2000/svg" xmlns:xlink="http://www.w3.org/1999/xlink" width="500" zoomAndPan="magnify" viewBox="0 0 375 374.999991" height="500" preserveAspectRatio="xMidYMid meet" version="1.0"><defs><g/><clipPath id="4a491a3575"><path d="M 16.425781 78.039062 L 120.675781 78.039062 L 120.675781 297.039062 L 16.425781 297.039062 Z M 16.425781 78.039062 " clip-rule="nonzero"/></clipPath></defs><path fill="#a3e440" d="M 114.511719 110.320312 C 114.511719 101.8125 107.617188 94.917969 99.113281 94.917969 C 97.832031 94.917969 96.585938 95.078125 95.394531 95.375 C 94.742188 87.464844 88.125 81.246094 80.054688 81.246094 C 75.488281 81.246094 71.390625 83.234375 68.570312 86.390625 C 65.753906 83.234375 61.652344 81.246094 57.089844 81.246094 C 49.015625 81.246094 42.398438 87.464844 41.75 95.375 C 40.558594 95.078125 39.3125 94.917969 38.027344 94.917969 C 29.523438 94.917969 22.632812 101.8125 22.632812 110.320312 C 22.632812 137.820312 68.570312 186.765625 68.570312 186.765625 C 68.570312 186.765625 114.511719 137.820312 114.511719 110.320312 Z M 114.511719 110.320312 " fill-opacity="1" fill-rule="nonzero"/><path fill="#99d53b" d="M 114.511719 110.320312 C 114.511719 137.820312 68.570312 186.765625 68.570312 186.765625 C 68.570312 186.765625 66.035156 184.066406 62.15625 179.574219 C 76.019531 163.535156 107.042969 124.652344 100.882812 104.570312 C 100 101.675781 98.003906 99.253906 95.425781 97.664062 C 92.148438 95.640625 88.867188 94.832031 85.820312 94.925781 C 84.066406 94.976562 82.46875 93.851562 81.957031 92.175781 C 80.675781 87.933594 77.613281 84.46875 73.636719 82.644531 C 75.589844 81.746094 77.765625 81.246094 80.050781 81.246094 C 88.128906 81.246094 94.742188 87.464844 95.394531 95.375 C 96.585938 95.074219 97.832031 94.917969 99.113281 94.917969 C 107.617188 94.917969 114.511719 101.8125 114.511719 110.320312 Z M 114.511719 110.320312 " fill-opacity="1" fill-rule="nonzero"/><path fill="#a3e440" d="M 22.632812 264.757812 C 22.632812 273.265625 29.523438 280.160156 38.027344 280.160156 C 39.3125 280.160156 40.558594 280 41.75 279.703125 C 42.398438 287.613281 49.015625 293.832031 57.089844 293.832031 C 61.652344 293.832031 65.753906 291.84375 68.570312 288.6875 C 71.390625 291.84375 75.488281 293.832031 80.054688 293.832031 C 88.125 293.832031 94.742188 287.613281 95.394531 279.703125 C 96.585938 280 97.832031 280.160156 99.113281 280.160156 C 107.617188 280.160156 114.511719 273.265625 114.511719 264.757812 C 114.511719 237.257812 68.570312 188.316406 68.570312 188.316406 C 68.570312 188.316406 22.632812 237.257812 22.632812 264.757812 Z M 22.632812 264.757812 " fill-opacity="1" fill-rule="nonzero"/><path fill="#99d53b" d="M 114.511719 264.757812 C 114.511719 273.265625 107.617188 280.160156 99.113281 280.160156 C 97.832031 280.160156 96.585938 280.003906 95.394531 279.703125 C 94.742188 287.613281 88.128906 293.832031 80.050781 293.832031 C 77.765625 293.832031 75.59375 293.332031 73.640625 292.433594 C 77.714844 290.5625 80.824219 286.976562 82.046875 282.59375 C 82.476562 281.0625 83.902344 280.058594 85.492188 280.140625 C 86.191406 280.179688 86.910156 280.164062 87.636719 280.101562 C 95.90625 279.382812 101.980469 272.066406 101.664062 263.773438 C 100.851562 242.683594 74.597656 209.898438 62.15625 195.503906 C 66.035156 191.011719 68.570312 188.3125 68.570312 188.3125 C 68.570312 188.3125 114.511719 237.257812 114.511719 264.757812 Z M 114.511719 264.757812 " fill-opacity="1" fill-rule="nonzero"/><path fill="#99d53b" d="M 114.511719 264.757812 C 114.511719 270.445312 111.425781 275.417969 106.839844 278.085938 C 106.546875 277.960938 106.261719 277.828125 105.980469 277.6875 C 90.996094 270.117188 78.148438 258.933594 68.570312 245.175781 C 58.992188 258.933594 46.144531 270.117188 31.167969 277.6875 C 30.886719 277.835938 30.59375 277.964844 30.304688 278.085938 C 25.714844 275.417969 22.632812 270.445312 22.632812 264.757812 C 22.632812 237.257812 68.570312 188.3125 68.570312 188.3125 C 68.570312 188.3125 114.511719 237.257812 114.511719 264.757812 Z M 114.511719 264.757812 " fill-opacity="1" fill-rule="nonzero"/><path fill="#a64b35" d="M 61.648438 152.398438 L 47.808594 152.398438 L 47.808594 111.558594 C 47.808594 109.195312 49.722656 107.28125 52.082031 107.28125 L 57.375 107.28125 C 59.734375 107.28125 61.648438 109.195312 61.648438 111.558594 Z M 61.648438 152.398438 " fill-opacity="1" fill-rule="nonzero"/><path fill="#8b3d2a" d="M 75.492188 152.398438 L 61.648438 152.398438 L 61.648438 103.003906 C 61.648438 100.640625 63.5625 98.726562 65.925781 98.726562 L 71.21875 98.726562 C 73.578125 98.726562 75.492188 100.640625 75.492188 103.003906 Z M 75.492188 152.398438 " fill-opacity="1" fill-rule="nonzero"/><path fill="#a64b35" d="M 89.335938 152.398438 L 75.492188 152.398438 L 75.492188 111.558594 C 75.492188 109.195312 77.40625 107.28125 79.769531 107.28125 L 85.058594 107.28125 C 87.421875 107.28125 89.335938 109.195312 89.335938 111.558594 Z M 89.335938 152.398438 " fill-opacity="1" fill-rule="nonzero"/><path fill="#a64b35" d="M 75.492188 222.679688 L 89.335938 222.679688 L 89.335938 263.523438 C 89.335938 265.882812 87.421875 267.800781 85.058594 267.800781 L 79.769531 267.800781 C 77.40625 267.800781 75.492188 265.882812 75.492188 263.523438 Z M 75.492188 222.679688 " fill-opacity="1" fill-rule="nonzero"/><path fill="#8b3d2a" d="M 89.335938 222.679688 L 89.335938 263.523438 C 89.335938 264.582031 88.945312 265.554688 88.304688 266.300781 C 83.6875 262.597656 79.402344 258.492188 75.492188 254.03125 L 75.492188 222.679688 Z M 89.335938 222.679688 " fill-opacity="1" fill-rule="nonzero"/><path fill="#8b3d2a" d="M 75.492188 222.679688 L 75.492188 272.078125 C 75.492188 274.4375 73.578125 276.355469 71.21875 276.355469 L 65.925781 276.355469 C 63.566406 276.355469 61.648438 274.4375 61.648438 272.078125 L 61.648438 222.679688 Z M 75.492188 222.679688 " fill-opacity="1" fill-rule="nonzero"/><path fill="#6c3328" d="M 75.492188 222.679688 L 75.492188 254.03125 C 73.03125 251.214844 70.71875 248.261719 68.570312 245.175781 C 66.425781 248.261719 64.113281 251.214844 61.648438 254.03125 L 61.648438 222.679688 Z M 75.492188 222.679688 " fill-opacity="1" fill-rule="nonzero"/><path fill="#a64b35" d="M 47.808594 222.679688 L 61.648438 222.679688 L 61.648438 263.523438 C 61.648438 265.882812 59.734375 267.800781 57.375 267.800781 L 52.082031 267.800781 C 49.722656 267.800781 47.808594 265.882812 47.808594 263.523438 Z M 47.808594 222.679688 " fill-opacity="1" fill-rule="nonzero"/><path fill="#8b3d2a" d="M 61.648438 222.679688 L 61.648438 254.03125 C 57.742188 258.492188 53.457031 262.597656 48.839844 266.300781 C 48.199219 265.554688 47.808594 264.582031 47.808594 263.523438 L 47.808594 222.679688 Z M 61.648438 222.679688 " fill-opacity="1" fill-rule="nonzero"/><path fill="#fca62f" d="M 117.421875 109.730469 L 117.421875 265.347656 C 117.421875 269.25 113.3125 271.8125 109.835938 270.054688 C 79.71875 254.835938 59.066406 223.601562 59.066406 187.539062 C 59.066406 151.480469 79.71875 120.246094 109.832031 105.023438 C 113.3125 103.265625 117.421875 105.832031 117.421875 109.730469 Z M 117.421875 109.730469 " fill-opacity="1" fill-rule="nonzero"/><path fill="#f98824" d="M 117.421875 109.730469 L 117.421875 265.347656 C 117.421875 269.25 113.3125 271.8125 109.832031 270.054688 C 107.960938 269.109375 106.121094 268.097656 104.324219 267.03125 C 104.5 266.507812 104.59375 265.941406 104.59375 265.347656 L 104.59375 109.730469 C 104.59375 109.136719 104.5 108.570312 104.324219 108.050781 C 106.121094 106.980469 107.960938 105.96875 109.832031 105.023438 C 113.3125 103.265625 117.421875 105.828125 117.421875 109.730469 Z M 117.421875 109.730469 " fill-opacity="1" fill-rule="nonzero"/><path fill="#fcc16d" d="M 19.71875 109.730469 L 19.71875 265.347656 C 19.71875 269.25 23.828125 271.8125 27.308594 270.054688 C 57.425781 254.835938 78.078125 223.601562 78.078125 187.539062 C 78.078125 151.480469 57.425781 120.246094 27.308594 105.023438 C 23.832031 103.265625 19.71875 105.832031 19.71875 109.730469 Z M 19.71875 109.730469 " fill-opacity="1" fill-rule="nonzero"/><path fill="#fcb44d" d="M 78.078125 187.539062 C 78.078125 223.601562 57.425781 254.835938 27.308594 270.054688 C 24.359375 271.542969 20.960938 269.929688 19.992188 267.03125 C 47.085938 250.929688 65.25 221.359375 65.25 187.539062 C 65.25 153.71875 47.085938 124.148438 19.992188 108.050781 C 20.960938 105.148438 24.359375 103.535156 27.308594 105.023438 C 57.425781 120.242188 78.078125 151.476562 78.078125 187.539062 Z M 78.078125 187.539062 " fill-opacity="1" fill-rule="nonzero"/><path fill="#fb9927" d="M 57.136719 169.191406 C 57.136719 170.167969 57.078125 171.132812 56.957031 172.089844 C 56.835938 173.046875 56.660156 173.976562 56.425781 174.878906 C 56.191406 175.78125 55.902344 176.636719 55.5625 177.449219 C 55.222656 178.261719 54.835938 179.011719 54.402344 179.699219 C 53.96875 180.390625 53.5 181.007812 52.988281 181.546875 C 52.480469 182.089844 51.941406 182.546875 51.375 182.921875 C 50.8125 183.296875 50.226562 183.578125 49.625 183.769531 C 49.027344 183.957031 48.417969 184.054688 47.808594 184.054688 C 47.195312 184.054688 46.585938 183.957031 45.988281 183.769531 C 45.386719 183.578125 44.800781 183.296875 44.238281 182.921875 C 43.671875 182.546875 43.132812 182.089844 42.625 181.546875 C 42.113281 181.007812 41.644531 180.390625 41.210938 179.699219 C 40.777344 179.011719 40.390625 178.261719 40.050781 177.449219 C 39.710938 176.636719 39.421875 175.78125 39.1875 174.878906 C 38.953125 173.976562 38.777344 173.046875 38.65625 172.089844 C 38.539062 171.132812 38.476562 170.167969 38.476562 169.191406 C 38.476562 168.214844 38.539062 167.25 38.65625 166.292969 C 38.777344 165.335938 38.953125 164.40625 39.1875 163.503906 C 39.421875 162.601562 39.710938 161.746094 40.050781 160.933594 C 40.390625 160.125 40.777344 159.371094 41.210938 158.683594 C 41.644531 157.992188 42.113281 157.375 42.625 156.835938 C 43.132812 156.292969 43.671875 155.835938 44.238281 155.460938 C 44.800781 155.089844 45.386719 154.804688 45.988281 154.617188 C 46.585938 154.425781 47.195312 154.332031 47.808594 154.332031 C 48.417969 154.332031 49.027344 154.425781 49.625 154.617188 C 50.226562 154.804688 50.8125 155.089844 51.375 155.460938 C 51.941406 155.835938 52.480469 156.292969 52.988281 156.835938 C 53.5 157.375 53.96875 157.992188 54.402344 158.683594 C 54.835938 159.371094 55.222656 160.125 55.5625 160.933594 C 55.902344 161.746094 56.191406 162.601562 56.425781 163.503906 C 56.660156 164.40625 56.835938 165.335938 56.957031 166.292969 C 57.078125 167.25 57.136719 168.214844 57.136719 169.191406 Z M 57.136719 169.191406 " fill-opacity="1" fill-rule="nonzero"/><path fill="#f98824" d="M 99.308594 215.527344 C 99.308594 216.207031 99.265625 216.882812 99.183594 217.550781 C 99.101562 218.21875 98.976562 218.867188 98.8125 219.496094 C 98.648438 220.125 98.449219 220.722656 98.210938 221.289062 C 97.972656 221.855469 97.703125 222.378906 97.402344 222.863281 C 97.097656 223.34375 96.769531 223.773438 96.414062 224.152344 C 96.058594 224.53125 95.683594 224.851562 95.289062 225.109375 C 94.894531 225.371094 94.488281 225.566406 94.066406 225.699219 C 93.648438 225.832031 93.222656 225.898438 92.796875 225.898438 C 92.371094 225.898438 91.945312 225.832031 91.527344 225.699219 C 91.105469 225.566406 90.699219 225.371094 90.304688 225.109375 C 89.910156 224.851562 89.535156 224.53125 89.179688 224.152344 C 88.824219 223.773438 88.496094 223.34375 88.191406 222.863281 C 87.890625 222.378906 87.621094 221.855469 87.382812 221.289062 C 87.144531 220.722656 86.945312 220.125 86.78125 219.496094 C 86.617188 218.867188 86.492188 218.21875 86.410156 217.550781 C 86.328125 216.882812 86.285156 216.207031 86.285156 215.527344 C 86.285156 214.84375 86.328125 214.171875 86.410156 213.503906 C 86.492188 212.835938 86.617188 212.1875 86.78125 211.554688 C 86.945312 210.925781 87.144531 210.328125 87.382812 209.761719 C 87.621094 209.195312 87.890625 208.671875 88.191406 208.191406 C 88.496094 207.710938 88.824219 207.28125 89.179688 206.902344 C 89.535156 206.523438 89.910156 206.203125 90.304688 205.941406 C 90.699219 205.683594 91.105469 205.484375 91.527344 205.351562 C 91.945312 205.21875 92.371094 205.152344 92.796875 205.152344 C 93.222656 205.152344 93.648438 205.21875 94.066406 205.351562 C 94.488281 205.484375 94.894531 205.683594 95.289062 205.941406 C 95.683594 206.203125 96.058594 206.523438 96.414062 206.902344 C 96.769531 207.28125 97.097656 207.710938 97.402344 208.191406 C 97.703125 208.671875 97.972656 209.195312 98.210938 209.761719 C 98.449219 210.328125 98.648438 210.925781 98.8125 211.554688 C 98.976562 212.1875 99.101562 212.835938 99.183594 213.503906 C 99.265625 214.171875 99.308594 214.84375 99.308594 215.527344 Z M 99.308594 215.527344 " fill-opacity="1" fill-rule="nonzero"/><path fill="#fb9927" d="M 45.089844 206.882812 C 45.089844 207.460938 45.054688 208.035156 44.984375 208.601562 C 44.914062 209.167969 44.808594 209.714844 44.667969 210.25 C 44.53125 210.785156 44.359375 211.289062 44.160156 211.769531 C 43.957031 212.25 43.730469 212.695312 43.472656 213.101562 C 43.214844 213.511719 42.9375 213.875 42.636719 214.195312 C 42.335938 214.515625 42.015625 214.789062 41.683594 215.007812 C 41.347656 215.230469 41.003906 215.398438 40.648438 215.511719 C 40.289062 215.621094 39.933594 215.679688 39.570312 215.679688 C 39.207031 215.679688 38.847656 215.621094 38.492188 215.511719 C 38.136719 215.398438 37.792969 215.230469 37.457031 215.007812 C 37.121094 214.789062 36.804688 214.515625 36.503906 214.195312 C 36.199219 213.875 35.921875 213.511719 35.664062 213.101562 C 35.410156 212.695312 35.179688 212.25 34.980469 211.769531 C 34.777344 211.289062 34.609375 210.785156 34.46875 210.25 C 34.332031 209.714844 34.226562 209.167969 34.15625 208.601562 C 34.085938 208.035156 34.050781 207.460938 34.050781 206.882812 C 34.050781 206.308594 34.085938 205.734375 34.15625 205.167969 C 34.226562 204.601562 34.332031 204.050781 34.46875 203.519531 C 34.609375 202.984375 34.777344 202.476562 34.980469 202 C 35.179688 201.519531 35.410156 201.074219 35.664062 200.664062 C 35.921875 200.257812 36.199219 199.890625 36.503906 199.570312 C 36.804688 199.25 37.121094 198.980469 37.457031 198.757812 C 37.792969 198.539062 38.136719 198.371094 38.492188 198.257812 C 38.847656 198.144531 39.207031 198.089844 39.570312 198.089844 C 39.933594 198.089844 40.289062 198.144531 40.648438 198.257812 C 41.003906 198.371094 41.347656 198.539062 41.683594 198.757812 C 42.015625 198.980469 42.335938 199.25 42.636719 199.570312 C 42.9375 199.890625 43.214844 200.257812 43.472656 200.664062 C 43.730469 201.074219 43.957031 201.519531 44.160156 202 C 44.359375 202.476562 44.53125 202.984375 44.667969 203.519531 C 44.808594 204.050781 44.914062 204.601562 44.984375 205.167969 C 45.054688 205.734375 45.089844 206.308594 45.089844 206.882812 Z M 45.089844 206.882812 " fill-opacity="1" fill-rule="nonzero"/><g clip-path="url(#4a491a3575)"><path fill="#000000" d="M 117.421875 144.253906 C 119.195312 144.253906 120.628906 142.816406 120.628906 141.046875 L 120.628906 109.730469 C 120.628906 106.765625 119.121094 104.066406 116.59375 102.511719 C 116.335938 102.351562 116.070312 102.210938 115.800781 102.082031 C 112.675781 95.742188 106.261719 91.710938 99.113281 91.710938 C 98.742188 91.710938 98.375 91.722656 98.003906 91.742188 C 96.652344 86.742188 93.273438 82.519531 88.539062 80.085938 C 86.964844 79.277344 85.03125 79.898438 84.222656 81.472656 C 83.414062 83.050781 84.035156 84.984375 85.609375 85.792969 C 89.332031 87.707031 91.855469 91.476562 92.195312 95.636719 C 92.273438 96.574219 92.757812 97.429688 93.523438 97.980469 C 94.285156 98.527344 95.253906 98.714844 96.164062 98.488281 C 97.132812 98.246094 98.125 98.125 99.113281 98.125 C 102.683594 98.125 105.972656 99.667969 108.242188 102.238281 C 102.6875 105.054688 97.429688 108.425781 92.542969 112.265625 L 92.542969 111.558594 C 92.542969 107.429688 89.1875 104.074219 85.058594 104.074219 L 79.769531 104.074219 C 79.40625 104.074219 79.050781 104.109375 78.699219 104.15625 L 78.699219 103.003906 C 78.699219 98.875 75.34375 95.519531 71.21875 95.519531 L 65.925781 95.519531 C 61.800781 95.519531 58.441406 98.875 58.441406 103.003906 L 58.441406 104.15625 C 58.09375 104.109375 57.738281 104.074219 57.375 104.074219 L 52.082031 104.074219 C 47.957031 104.074219 44.601562 107.429688 44.601562 111.558594 L 44.601562 112.246094 C 39.722656 108.425781 34.472656 105.066406 28.902344 102.242188 C 31.179688 99.671875 34.476562 98.125 38.027344 98.125 C 39.019531 98.125 40.011719 98.25 40.976562 98.488281 C 41.890625 98.714844 42.855469 98.53125 43.621094 97.980469 C 44.386719 97.429688 44.871094 96.574219 44.945312 95.636719 C 45.460938 89.367188 50.792969 84.457031 57.089844 84.457031 C 60.554688 84.457031 63.867188 85.941406 66.179688 88.53125 C 66.789062 89.210938 67.65625 89.601562 68.570312 89.601562 C 69.484375 89.601562 70.355469 89.210938 70.960938 88.53125 C 71.847656 87.539062 72.886719 86.703125 74.050781 86.042969 C 75.589844 85.164062 76.128906 83.207031 75.253906 81.667969 C 74.378906 80.125 72.421875 79.585938 70.882812 80.460938 C 70.070312 80.921875 69.296875 81.441406 68.570312 82.011719 C 65.320312 79.460938 61.277344 78.039062 57.089844 78.039062 C 48.640625 78.039062 41.328125 83.835938 39.148438 91.742188 C 38.777344 91.722656 38.402344 91.710938 38.027344 91.710938 C 30.917969 91.710938 24.46875 95.75 21.347656 102.082031 C 21.074219 102.210938 20.808594 102.351562 20.550781 102.511719 C 18.023438 104.066406 16.511719 106.765625 16.511719 109.730469 L 16.511719 210.492188 C 16.511719 212.265625 17.949219 213.703125 19.71875 213.703125 C 21.492188 213.703125 22.925781 212.265625 22.925781 210.492188 L 22.925781 109.730469 C 22.925781 108.691406 23.613281 108.15625 23.910156 107.976562 C 24.199219 107.796875 24.964844 107.433594 25.863281 107.886719 C 40.367188 115.21875 52.613281 126.382812 61.269531 140.171875 C 70.167969 154.34375 74.871094 170.722656 74.871094 187.539062 C 74.871094 204.355469 70.167969 220.734375 61.269531 234.90625 C 52.613281 248.695312 40.367188 259.859375 25.863281 267.191406 C 24.964844 267.644531 24.199219 267.28125 23.910156 267.101562 C 23.613281 266.921875 22.925781 266.386719 22.925781 265.347656 L 22.925781 225.105469 C 22.925781 223.335938 21.492188 221.898438 19.71875 221.898438 C 17.949219 221.898438 16.511719 223.335938 16.511719 225.105469 L 16.511719 265.347656 C 16.511719 268.3125 18.023438 271.011719 20.550781 272.566406 C 20.808594 272.726562 21.074219 272.867188 21.34375 272.996094 C 24.46875 279.332031 30.902344 283.371094 38.027344 283.371094 C 38.402344 283.371094 38.777344 283.359375 39.148438 283.335938 C 41.328125 291.242188 48.640625 297.039062 57.089844 297.039062 C 61.277344 297.039062 65.320312 295.621094 68.570312 293.066406 C 71.824219 295.621094 75.867188 297.039062 80.054688 297.039062 C 88.503906 297.039062 95.816406 291.242188 97.992188 283.335938 C 98.367188 283.359375 98.742188 283.371094 99.113281 283.371094 C 106.21875 283.371094 112.675781 279.324219 115.796875 272.996094 C 116.070312 272.867188 116.335938 272.726562 116.59375 272.566406 C 119.121094 271.011719 120.628906 268.316406 120.628906 265.347656 L 120.628906 155.660156 C 120.628906 153.886719 119.195312 152.453125 117.421875 152.453125 C 115.652344 152.453125 114.214844 153.886719 114.214844 155.660156 L 114.214844 265.347656 C 114.214844 266.386719 113.527344 266.921875 113.234375 267.101562 C 112.945312 267.28125 112.175781 267.644531 111.28125 267.191406 C 94.585938 258.753906 80.726562 244.992188 72.148438 228.371094 C 78.148438 215.667969 81.285156 201.75 81.285156 187.539062 C 81.285156 173.328125 78.148438 159.410156 72.148438 146.710938 C 80.722656 130.089844 94.589844 116.324219 111.28125 107.886719 C 112.179688 107.433594 112.945312 107.796875 113.234375 107.976562 C 113.527344 108.15625 114.214844 108.691406 114.214844 109.730469 L 114.214844 141.046875 C 114.214844 142.816406 115.652344 144.253906 117.421875 144.253906 Z M 58.445312 249.550781 L 58.445312 263.523438 C 58.445312 264.109375 57.964844 264.589844 57.375 264.589844 L 52.082031 264.589844 C 51.492188 264.589844 51.015625 264.109375 51.015625 263.523438 L 51.015625 257.332031 C 53.628906 254.878906 56.113281 252.285156 58.445312 249.550781 Z M 99.113281 276.953125 C 98.125 276.953125 97.132812 276.832031 96.167969 276.589844 C 95.253906 276.363281 94.285156 276.550781 93.523438 277.097656 C 92.757812 277.648438 92.273438 278.503906 92.195312 279.441406 C 91.683594 285.710938 86.347656 290.625 80.054688 290.625 C 76.589844 290.625 73.277344 289.136719 70.960938 286.550781 C 70.355469 285.867188 69.484375 285.480469 68.570312 285.480469 C 67.65625 285.480469 66.789062 285.867188 66.179688 286.550781 C 63.867188 289.136719 60.554688 290.625 57.089844 290.625 C 50.792969 290.625 45.460938 285.710938 44.945312 279.441406 C 44.867188 278.503906 44.382812 277.648438 43.621094 277.097656 C 42.855469 276.550781 41.890625 276.363281 40.976562 276.589844 C 40.011719 276.832031 39.019531 276.953125 38.027344 276.953125 C 34.46875 276.953125 31.175781 275.410156 28.902344 272.839844 C 34.46875 270.015625 39.722656 266.65625 44.601562 262.832031 L 44.601562 263.519531 C 44.601562 267.648438 47.957031 271.007812 52.082031 271.007812 L 57.375 271.007812 C 57.738281 271.007812 58.09375 270.972656 58.441406 270.921875 L 58.441406 272.074219 C 58.441406 276.203125 61.800781 279.5625 65.925781 279.5625 L 71.21875 279.5625 C 75.34375 279.5625 78.699219 276.203125 78.699219 272.074219 L 78.699219 270.921875 C 79.050781 270.972656 79.40625 271.007812 79.769531 271.007812 L 85.058594 271.007812 C 89.1875 271.007812 92.542969 267.648438 92.542969 263.519531 L 92.542969 262.816406 C 97.429688 266.652344 102.6875 270.023438 108.238281 272.839844 C 105.960938 275.410156 102.664062 276.953125 99.113281 276.953125 Z M 86.128906 257.304688 L 86.128906 263.519531 C 86.128906 264.109375 85.648438 264.589844 85.058594 264.589844 L 79.769531 264.589844 C 79.179688 264.589844 78.699219 264.109375 78.699219 263.519531 L 78.699219 249.527344 C 81.027344 252.253906 83.511719 254.851562 86.128906 257.304688 Z M 72.285156 241.117188 L 72.285156 272.078125 C 72.285156 272.664062 71.808594 273.144531 71.21875 273.144531 L 65.925781 273.144531 C 65.335938 273.144531 64.855469 272.664062 64.855469 272.078125 L 64.855469 241.144531 C 65.488281 240.214844 66.105469 239.273438 66.703125 238.320312 C 67.347656 237.292969 67.96875 236.253906 68.574219 235.207031 C 69.738281 237.222656 70.976562 239.195312 72.285156 241.117188 Z M 51.015625 117.746094 L 51.015625 111.558594 C 51.015625 110.96875 51.492188 110.488281 52.082031 110.488281 L 57.375 110.488281 C 57.964844 110.488281 58.445312 110.96875 58.445312 111.558594 L 58.445312 125.53125 C 56.113281 122.792969 53.628906 120.199219 51.015625 117.746094 Z M 66.703125 136.761719 C 66.101562 135.808594 65.488281 134.867188 64.855469 133.9375 L 64.855469 103.003906 C 64.855469 102.414062 65.335938 101.933594 65.925781 101.933594 L 71.21875 101.933594 C 71.808594 101.933594 72.285156 102.414062 72.285156 103.003906 L 72.285156 133.960938 C 70.976562 135.886719 69.738281 137.859375 68.574219 139.875 C 67.96875 138.828125 67.347656 137.789062 66.703125 136.761719 Z M 78.699219 125.550781 L 78.699219 111.558594 C 78.699219 110.96875 79.179688 110.488281 79.769531 110.488281 L 85.058594 110.488281 C 85.648438 110.488281 86.128906 110.96875 86.128906 111.558594 L 86.128906 117.777344 C 83.511719 120.230469 81.027344 122.824219 78.699219 125.550781 Z M 78.699219 125.550781 " fill-opacity="1" fill-rule="nonzero"/></g><path fill="#000000" d="M 103.507812 147.6875 L 103.460938 147.6875 C 101.691406 147.6875 100.253906 149.121094 100.253906 150.894531 C 100.253906 152.664062 101.691406 154.101562 103.460938 154.101562 L 103.507812 154.101562 C 105.277344 154.101562 106.714844 152.664062 106.714844 150.894531 C 106.714844 149.121094 105.277344 147.6875 103.507812 147.6875 Z M 103.507812 147.6875 " fill-opacity="1" fill-rule="nonzero"/><path fill="#000000" d="M 103.507812 165.132812 C 105.277344 165.132812 106.714844 163.695312 106.714844 161.925781 C 106.714844 160.152344 105.277344 158.714844 103.507812 158.714844 L 103.460938 158.714844 C 101.691406 158.714844 100.253906 160.152344 100.253906 161.925781 C 100.253906 163.695312 101.691406 165.132812 103.460938 165.132812 Z M 103.507812 165.132812 " fill-opacity="1" fill-rule="nonzero"/><path fill="#000000" d="M 95.082031 159.617188 L 95.128906 159.617188 C 96.898438 159.617188 98.335938 158.179688 98.335938 156.410156 C 98.335938 154.636719 96.898438 153.199219 95.128906 153.199219 L 95.082031 153.199219 C 93.3125 153.199219 91.875 154.636719 91.875 156.410156 C 91.875 158.179688 93.3125 159.617188 95.082031 159.617188 Z M 95.082031 159.617188 " fill-opacity="1" fill-rule="nonzero"/><path fill="#000000" d="M 34.207031 237.832031 L 34.160156 237.832031 C 32.390625 237.832031 30.953125 239.269531 30.953125 241.039062 C 30.953125 242.8125 32.390625 244.25 34.160156 244.25 L 34.207031 244.25 C 35.976562 244.25 37.414062 242.8125 37.414062 241.039062 C 37.414062 239.269531 35.976562 237.832031 34.207031 237.832031 Z M 34.207031 237.832031 " fill-opacity="1" fill-rule="nonzero"/><path fill="#000000" d="M 34.207031 226.800781 L 34.160156 226.800781 C 32.390625 226.800781 30.953125 228.238281 30.953125 230.011719 C 30.953125 231.78125 32.390625 233.21875 34.160156 233.21875 L 34.207031 233.21875 C 35.976562 233.21875 37.414062 231.78125 37.414062 230.011719 C 37.414062 228.238281 35.976562 226.800781 34.207031 226.800781 Z M 34.207031 226.800781 " fill-opacity="1" fill-rule="nonzero"/><path fill="#000000" d="M 42.539062 232.316406 C 40.769531 232.316406 39.332031 233.753906 39.332031 235.523438 C 39.332031 237.296875 40.769531 238.734375 42.539062 238.734375 L 42.585938 238.734375 C 44.355469 238.734375 45.792969 237.296875 45.792969 235.523438 C 45.792969 233.753906 44.355469 232.316406 42.585938 232.316406 Z M 42.539062 232.316406 " fill-opacity="1" fill-rule="nonzero"/><path fill="#000000" d="M 36.351562 126.574219 L 36.308594 126.574219 C 34.535156 126.574219 33.101562 128.011719 33.101562 129.785156 C 33.101562 131.554688 34.535156 132.992188 36.308594 132.992188 L 36.351562 132.992188 C 38.125 132.992188 39.558594 131.554688 39.558594 129.785156 C 39.558594 128.011719 38.125 126.574219 36.351562 126.574219 Z M 36.351562 126.574219 " fill-opacity="1" fill-rule="nonzero"/><path fill="#000000" d="M 44.730469 138.507812 C 46.503906 138.507812 47.9375 137.070312 47.9375 135.300781 C 47.9375 133.527344 46.503906 132.089844 44.730469 132.089844 L 44.6875 132.089844 C 42.914062 132.089844 41.480469 133.527344 41.480469 135.300781 C 41.480469 137.070312 42.914062 138.507812 44.6875 138.507812 Z M 44.730469 138.507812 " fill-opacity="1" fill-rule="nonzero"/><path fill="#000000" d="M 35.269531 169.191406 C 35.269531 179.324219 40.777344 187.261719 47.808594 187.261719 C 54.835938 187.261719 60.34375 179.324219 60.34375 169.191406 C 60.34375 159.058594 54.835938 151.121094 47.808594 151.121094 C 40.777344 151.121094 35.269531 159.058594 35.269531 169.191406 Z M 47.808594 157.539062 C 51.3125 157.539062 53.929688 163.691406 53.929688 169.191406 C 53.929688 174.691406 51.3125 180.847656 47.808594 180.847656 C 44.304688 180.847656 41.683594 174.691406 41.683594 169.191406 C 41.683594 163.691406 44.304688 157.539062 47.808594 157.539062 Z M 47.808594 157.539062 " fill-opacity="1" fill-rule="nonzero"/><path fill="#000000" d="M 83.078125 215.527344 C 83.078125 223.140625 87.347656 229.109375 92.796875 229.109375 C 98.246094 229.109375 102.515625 223.140625 102.515625 215.527344 C 102.515625 207.910156 98.246094 201.945312 92.796875 201.945312 C 87.347656 201.945312 83.078125 207.910156 83.078125 215.527344 Z M 92.796875 208.359375 C 94.113281 208.359375 96.101562 211.21875 96.101562 215.527344 C 96.101562 219.835938 94.113281 222.691406 92.796875 222.691406 C 91.480469 222.691406 89.492188 219.835938 89.492188 215.527344 C 89.492188 211.21875 91.480469 208.359375 92.796875 208.359375 Z M 92.796875 208.359375 " fill-opacity="1" fill-rule="nonzero"/><path fill="#000000" d="M 39.570312 218.886719 C 44.464844 218.886719 48.296875 213.613281 48.296875 206.882812 C 48.296875 200.152344 44.464844 194.882812 39.570312 194.882812 C 34.675781 194.882812 30.84375 200.152344 30.84375 206.882812 C 30.84375 213.613281 34.675781 218.886719 39.570312 218.886719 Z M 39.570312 201.296875 C 40.277344 201.296875 41.882812 203.410156 41.882812 206.882812 C 41.882812 210.359375 40.277344 212.472656 39.570312 212.472656 C 38.863281 212.472656 37.257812 210.359375 37.257812 206.882812 C 37.257812 203.410156 38.863281 201.296875 39.570312 201.296875 Z M 39.570312 201.296875 " fill-opacity="1" fill-rule="nonzero"/><g fill="#fefffe" fill-opacity="1"><g transform="translate(131.161095, 181.499988)"><g><path d="M 31.078125 -40.6875 C 32.066406 -40.375 32.882812 -39.835938 33.53125 -39.078125 C 34.1875 -38.328125 34.515625 -37.117188 34.515625 -35.453125 C 34.515625 -33.785156 34.019531 -31.960938 33.03125 -29.984375 C 32.039062 -28.003906 30.609375 -27.015625 28.734375 -27.015625 C 27.796875 -27.015625 26.894531 -27.222656 26.03125 -27.640625 C 25.175781 -28.054688 24.046875 -28.265625 22.640625 -28.265625 C 21.234375 -28.265625 19.921875 -27.769531 18.703125 -26.78125 C 17.484375 -25.789062 16.875 -24.59375 16.875 -23.1875 L 16.875 -6.796875 C 16.875 -5.597656 16.832031 -4.695312 16.75 -4.09375 C 16.675781 -3.5 16.429688 -2.8125 16.015625 -2.03125 C 15.234375 -0.675781 13.203125 0 9.921875 0 C 7.421875 0 5.625 -0.441406 4.53125 -1.328125 C 3.695312 -2.054688 3.226562 -3.175781 3.125 -4.6875 C 3.125 -5.207031 3.125 -5.960938 3.125 -6.953125 L 3.125 -34.359375 C 3.125 -35.554688 3.160156 -36.453125 3.234375 -37.046875 C 3.316406 -37.648438 3.539062 -38.316406 3.90625 -39.046875 C 4.632812 -40.453125 6.664062 -41.15625 10 -41.15625 C 13.125 -41.15625 15.078125 -40.554688 15.859375 -39.359375 C 16.429688 -38.523438 16.71875 -37.664062 16.71875 -36.78125 C 16.976562 -37.144531 17.351562 -37.585938 17.84375 -38.109375 C 18.34375 -38.628906 19.394531 -39.332031 21 -40.21875 C 22.613281 -41.101562 24.03125 -41.546875 25.25 -41.546875 C 26.476562 -41.546875 27.507812 -41.476562 28.34375 -41.34375 C 29.175781 -41.21875 30.085938 -41 31.078125 -40.6875 Z M 31.078125 -40.6875 "/></g></g></g><g fill="#fefffe" fill-opacity="1"><g transform="translate(168.015989, 181.499988)"><g><path d="M 3.125 -34.28125 C 3.125 -35.476562 3.160156 -36.375 3.234375 -36.96875 C 3.316406 -37.570312 3.539062 -38.265625 3.90625 -39.046875 C 4.632812 -40.398438 6.664062 -41.078125 10 -41.078125 C 12.5 -41.078125 14.269531 -40.632812 15.3125 -39.75 C 16.195312 -39.019531 16.664062 -37.898438 16.71875 -36.390625 C 16.769531 -35.867188 16.796875 -35.113281 16.796875 -34.125 L 16.796875 -6.796875 C 16.796875 -5.597656 16.753906 -4.695312 16.671875 -4.09375 C 16.597656 -3.5 16.351562 -2.8125 15.9375 -2.03125 C 15.257812 -0.675781 13.253906 0 9.921875 0 C 6.640625 0 4.632812 -0.703125 3.90625 -2.109375 C 3.539062 -2.890625 3.316406 -3.566406 3.234375 -4.140625 C 3.160156 -4.710938 3.125 -5.625 3.125 -6.875 Z M 15.96875 -48.765625 C 15.582031 -48.015625 14.894531 -47.484375 13.90625 -47.171875 C 12.914062 -46.859375 11.597656 -46.703125 9.953125 -46.703125 C 8.316406 -46.703125 7.003906 -46.859375 6.015625 -47.171875 C 5.023438 -47.484375 4.332031 -48.03125 3.9375 -48.8125 C 3.550781 -49.59375 3.316406 -50.28125 3.234375 -50.875 C 3.160156 -51.476562 3.125 -52.378906 3.125 -53.578125 C 3.125 -54.773438 3.160156 -55.671875 3.234375 -56.265625 C 3.316406 -56.867188 3.539062 -57.535156 3.90625 -58.265625 C 4.632812 -59.660156 6.664062 -60.359375 10 -60.359375 C 13.28125 -60.359375 15.257812 -59.660156 15.9375 -58.265625 C 16.351562 -57.484375 16.597656 -56.789062 16.671875 -56.1875 C 16.753906 -55.59375 16.796875 -54.695312 16.796875 -53.5 C 16.796875 -52.300781 16.753906 -51.398438 16.671875 -50.796875 C 16.597656 -50.203125 16.363281 -49.523438 15.96875 -48.765625 Z M 15.96875 -48.765625 "/></g></g></g><g fill="#fefffe" fill-opacity="1"><g transform="translate(189.098328, 181.499988)"><g><path d="M 3.4375 -3.671875 C 2.445312 -4.296875 1.953125 -5.285156 1.953125 -6.640625 C 1.953125 -7.992188 2.941406 -10.050781 4.921875 -12.8125 C 5.492188 -13.695312 6.414062 -14.140625 7.6875 -14.140625 C 8.96875 -14.140625 10.703125 -13.5 12.890625 -12.21875 C 15.078125 -10.945312 17.054688 -10.3125 18.828125 -10.3125 C 21.992188 -10.3125 23.578125 -10.9375 23.578125 -12.1875 C 23.578125 -13.175781 21.835938 -13.90625 18.359375 -14.375 C 15.078125 -14.84375 11.820312 -16.066406 8.59375 -18.046875 C 7.082031 -18.984375 5.832031 -20.453125 4.84375 -22.453125 C 3.851562 -24.453125 3.359375 -26.832031 3.359375 -29.59375 C 3.359375 -37.820312 9.003906 -41.9375 20.296875 -41.9375 C 23.992188 -41.9375 27.796875 -41.050781 31.703125 -39.28125 C 33.523438 -38.445312 34.4375 -37.40625 34.4375 -36.15625 C 34.4375 -34.90625 33.863281 -33.367188 32.71875 -31.546875 C 31.570312 -29.722656 30.398438 -28.8125 29.203125 -28.8125 C 28.578125 -28.8125 27.414062 -29.203125 25.71875 -29.984375 C 24.03125 -30.765625 22.195312 -31.15625 20.21875 -31.15625 C 17.15625 -31.15625 15.625 -30.582031 15.625 -29.4375 C 15.625 -27.875 17.390625 -26.859375 20.921875 -26.390625 C 24.359375 -26.023438 27.691406 -25.035156 30.921875 -23.421875 C 32.429688 -22.691406 33.691406 -21.429688 34.703125 -19.640625 C 35.722656 -17.847656 36.234375 -15.597656 36.234375 -12.890625 C 36.234375 -10.179688 35.722656 -7.875 34.703125 -5.96875 C 33.691406 -4.070312 32.273438 -2.65625 30.453125 -1.71875 C 27.117188 -0.101562 22.941406 0.703125 17.921875 0.703125 C 12.898438 0.703125 8.070312 -0.753906 3.4375 -3.671875 Z M 3.4375 -3.671875 "/></g></g></g><g fill="#fefffe" fill-opacity="1"><g transform="translate(228.451845, 181.499988)"><g><path d="M 27.328125 -20.609375 L 37.71875 -12.03125 C 39.019531 -10.9375 39.835938 -10.101562 40.171875 -9.53125 C 40.515625 -8.957031 40.6875 -8.410156 40.6875 -7.890625 C 40.6875 -6.640625 39.878906 -4.945312 38.265625 -2.8125 C 36.492188 -0.625 34.929688 0.46875 33.578125 0.46875 C 32.429688 0.46875 30.84375 -0.285156 28.8125 -1.796875 L 28.03125 -2.34375 C 26.832031 -3.332031 24.984375 -5.0625 22.484375 -7.53125 C 19.992188 -10.007812 18.097656 -11.769531 16.796875 -12.8125 L 16.796875 -6.796875 C 16.796875 -5.597656 16.753906 -4.695312 16.671875 -4.09375 C 16.597656 -3.5 16.351562 -2.8125 15.9375 -2.03125 C 15.257812 -0.675781 13.253906 0 9.921875 0 C 6.640625 0 4.632812 -0.703125 3.90625 -2.109375 C 3.539062 -2.890625 3.316406 -3.578125 3.234375 -4.171875 C 3.160156 -4.773438 3.125 -5.675781 3.125 -6.875 L 3.125 -53.65625 C 3.125 -54.851562 3.160156 -55.75 3.234375 -56.34375 C 3.316406 -56.945312 3.539062 -57.640625 3.90625 -58.421875 C 4.632812 -59.816406 6.664062 -60.515625 10 -60.515625 C 12.5 -60.515625 14.269531 -60.070312 15.3125 -59.1875 C 16.195312 -58.46875 16.664062 -57.328125 16.71875 -55.765625 C 16.769531 -55.296875 16.796875 -54.566406 16.796875 -53.578125 L 16.796875 -28.8125 C 17.734375 -29.59375 19.148438 -30.921875 21.046875 -32.796875 C 22.941406 -34.671875 24.359375 -36 25.296875 -36.78125 L 26.234375 -37.40625 C 28.054688 -38.8125 29.617188 -39.515625 30.921875 -39.515625 C 32.222656 -39.515625 33.71875 -38.457031 35.40625 -36.34375 C 37.101562 -34.238281 37.953125 -32.585938 37.953125 -31.390625 C 37.953125 -30.191406 36.988281 -28.785156 35.0625 -27.171875 Z M 27.328125 -20.609375 "/></g></g></g><g fill="#fefffe" fill-opacity="1"><g transform="translate(271.475218, 181.499988)"><g><path d="M 41.390625 -40.6875 C 44.460938 -39.332031 46 -37.691406 46 -35.765625 C 46 -34.828125 45.789062 -33.941406 45.375 -33.109375 C 44.957031 -32.273438 44.75 -31.832031 44.75 -31.78125 L 24.28125 13.984375 C 23.863281 14.972656 23.507812 15.726562 23.21875 16.25 C 22.9375 16.769531 22.484375 17.265625 21.859375 17.734375 C 21.234375 18.203125 20.453125 18.4375 19.515625 18.4375 C 18.585938 18.4375 17.210938 18.046875 15.390625 17.265625 C 12.316406 15.910156 10.78125 14.296875 10.78125 12.421875 C 10.78125 11.171875 13.28125 5.207031 18.28125 -5.46875 L 2.734375 -31.625 C 1.691406 -33.34375 1.171875 -34.617188 1.171875 -35.453125 C 1.171875 -37.117188 2.578125 -38.785156 5.390625 -40.453125 C 7.160156 -41.492188 8.539062 -42.015625 9.53125 -42.015625 C 10.519531 -42.015625 11.328125 -41.804688 11.953125 -41.390625 C 12.578125 -40.972656 13.03125 -40.539062 13.3125 -40.09375 C 13.601562 -39.65625 15.035156 -37.234375 17.609375 -32.828125 C 20.179688 -28.429688 22.640625 -24.332031 24.984375 -20.53125 C 25.242188 -21.363281 26.648438 -24.578125 29.203125 -30.171875 C 31.753906 -35.773438 33.117188 -38.757812 33.296875 -39.125 C 33.484375 -39.488281 33.785156 -39.929688 34.203125 -40.453125 C 34.878906 -41.335938 35.828125 -41.78125 37.046875 -41.78125 C 38.273438 -41.78125 39.722656 -41.414062 41.390625 -40.6875 Z M 41.390625 -40.6875 "/></g></g></g><g fill="#fefffe" fill-opacity="1"><g transform="translate(131.161095, 249.749984)"><g><path d="M 27.171875 -41.078125 C 30.765625 -41.078125 32.875 -40.085938 33.5 -38.109375 C 33.8125 -37.117188 33.96875 -35.816406 33.96875 -34.203125 C 33.96875 -32.585938 33.796875 -31.296875 33.453125 -30.328125 C 33.117188 -29.367188 32.585938 -28.679688 31.859375 -28.265625 C 30.765625 -27.640625 29.175781 -27.328125 27.09375 -27.328125 L 22.09375 -27.640625 L 22.09375 -6.71875 C 22.09375 -4.738281 21.84375 -3.265625 21.34375 -2.296875 C 20.851562 -1.335938 20.101562 -0.703125 19.09375 -0.390625 C 18.082031 -0.078125 16.769531 0.078125 15.15625 0.078125 C 13.539062 0.078125 12.25 -0.0859375 11.28125 -0.421875 C 10.320312 -0.765625 9.632812 -1.3125 9.21875 -2.0625 C 8.800781 -2.820312 8.550781 -3.515625 8.46875 -4.140625 C 8.394531 -4.765625 8.359375 -5.675781 8.359375 -6.875 L 8.359375 -27.5625 L 5.546875 -27.5625 C 4.191406 -27.664062 3.226562 -27.976562 2.65625 -28.5 C 1.664062 -29.488281 1.171875 -31.390625 1.171875 -34.203125 C 1.171875 -38.472656 2.707031 -40.609375 5.78125 -40.609375 L 8.359375 -40.609375 L 8.359375 -44.75 C 8.359375 -48.757812 9.789062 -52.390625 12.65625 -55.640625 C 15.519531 -58.890625 19.65625 -60.515625 25.0625 -60.515625 C 26.257812 -60.515625 27.15625 -60.472656 27.75 -60.390625 C 28.351562 -60.316406 29.046875 -60.070312 29.828125 -59.65625 C 31.234375 -58.976562 31.9375 -56.976562 31.9375 -53.65625 C 31.9375 -51.15625 31.492188 -49.359375 30.609375 -48.265625 C 29.878906 -47.429688 28.734375 -46.960938 27.171875 -46.859375 C 26.703125 -46.859375 25.972656 -46.859375 24.984375 -46.859375 C 23.054688 -46.859375 22.09375 -46.207031 22.09375 -44.90625 L 22.09375 -40.609375 Z M 27.171875 -41.078125 "/></g></g></g><g fill="#fefffe" fill-opacity="1"><g transform="translate(167.469419, 249.749984)"><g><path d="M 29.828125 -36.78125 C 30.140625 -39.695312 32.195312 -41.15625 36 -41.15625 C 38.03125 -41.15625 39.539062 -41 40.53125 -40.6875 C 41.519531 -40.375 42.207031 -39.828125 42.59375 -39.046875 C 42.988281 -38.265625 43.222656 -37.570312 43.296875 -36.96875 C 43.378906 -36.375 43.421875 -35.476562 43.421875 -34.28125 L 43.421875 -6.953125 C 43.421875 -5.753906 43.378906 -4.851562 43.296875 -4.25 C 43.222656 -3.65625 43.003906 -2.96875 42.640625 -2.1875 C 41.910156 -0.832031 40.125 -0.15625 37.28125 -0.15625 C 34.445312 -0.15625 32.546875 -0.503906 31.578125 -1.203125 C 30.617188 -1.910156 30.0625 -2.941406 29.90625 -4.296875 C 27.976562 -1.535156 24.765625 -0.15625 20.265625 -0.15625 C 15.765625 -0.15625 11.585938 -2.210938 7.734375 -6.328125 C 3.878906 -10.441406 1.953125 -15.21875 1.953125 -20.65625 C 1.953125 -26.09375 3.890625 -30.851562 7.765625 -34.9375 C 11.648438 -39.03125 15.90625 -41.078125 20.53125 -41.078125 C 22.300781 -41.078125 23.914062 -40.765625 25.375 -40.140625 C 26.832031 -39.515625 27.847656 -38.925781 28.421875 -38.375 C 28.992188 -37.832031 29.460938 -37.300781 29.828125 -36.78125 Z M 15.625 -20.53125 C 15.625 -18.820312 16.296875 -17.273438 17.640625 -15.890625 C 18.992188 -14.515625 20.632812 -13.828125 22.5625 -13.828125 C 24.488281 -13.828125 26.085938 -14.53125 27.359375 -15.9375 C 28.640625 -17.34375 29.28125 -18.890625 29.28125 -20.578125 C 29.28125 -22.265625 28.664062 -23.835938 27.4375 -25.296875 C 26.21875 -26.753906 24.582031 -27.484375 22.53125 -27.484375 C 20.476562 -27.484375 18.8125 -26.753906 17.53125 -25.296875 C 16.257812 -23.835938 15.625 -22.25 15.625 -20.53125 Z M 15.625 -20.53125 "/></g></g></g><g fill="#fefffe" fill-opacity="1"><g transform="translate(215.177706, 249.749984)"><g><path d="M 13.625 -47.28125 C 12.664062 -47 11.378906 -46.859375 9.765625 -46.859375 C 8.148438 -46.859375 6.875 -47.015625 5.9375 -47.328125 C 5 -47.640625 4.332031 -48.171875 3.9375 -48.921875 C 3.550781 -49.679688 3.316406 -50.359375 3.234375 -50.953125 C 3.160156 -51.554688 3.125 -52.457031 3.125 -53.65625 C 3.125 -54.851562 3.160156 -55.738281 3.234375 -56.3125 C 3.316406 -56.882812 3.539062 -57.535156 3.90625 -58.265625 C 4.632812 -59.609375 6.640625 -60.28125 9.921875 -60.28125 C 13.046875 -60.28125 15 -59.609375 15.78125 -58.265625 C 16.144531 -57.585938 16.363281 -56.960938 16.4375 -56.390625 C 16.519531 -55.816406 16.5625 -54.957031 16.5625 -53.8125 L 16.5625 -53.34375 C 16.5625 -52.195312 16.519531 -51.335938 16.4375 -50.765625 C 16.363281 -50.191406 16.117188 -49.539062 15.703125 -48.8125 C 15.285156 -48.082031 14.59375 -47.570312 13.625 -47.28125 Z M 6.046875 -40.921875 C 7.015625 -41.234375 8.304688 -41.390625 9.921875 -41.390625 C 11.535156 -41.390625 12.8125 -41.234375 13.75 -40.921875 C 14.6875 -40.609375 15.347656 -40.070312 15.734375 -39.3125 C 16.128906 -38.5625 16.363281 -37.882812 16.4375 -37.28125 C 16.519531 -36.6875 16.5625 -35.789062 16.5625 -34.59375 L 16.5625 -2.421875 C 16.5625 3.671875 14.453125 8.539062 10.234375 12.1875 C 6.015625 15.832031 1.378906 17.65625 -3.671875 17.65625 C -4.867188 17.65625 -5.753906 17.613281 -6.328125 17.53125 C -6.898438 17.457031 -7.550781 17.238281 -8.28125 16.875 C -9.632812 16.144531 -10.3125 14.242188 -10.3125 11.171875 C -10.3125 8.097656 -9.75 6.171875 -8.625 5.390625 C -7.507812 4.609375 -6 4.21875 -4.09375 4.21875 C -2.195312 4.21875 -0.519531 3.695312 0.9375 2.65625 C 2.394531 1.613281 3.125 -0.257812 3.125 -2.96875 L 3.125 -35.140625 C 3.125 -36.960938 3.367188 -38.300781 3.859375 -39.15625 C 4.359375 -40.019531 5.085938 -40.609375 6.046875 -40.921875 Z M 6.046875 -40.921875 "/></g></g></g><g fill="#fefffe" fill-opacity="1"><g transform="translate(236.025796, 249.749984)"><g><path d="M 3.125 -34.28125 C 3.125 -35.476562 3.160156 -36.375 3.234375 -36.96875 C 3.316406 -37.570312 3.539062 -38.265625 3.90625 -39.046875 C 4.632812 -40.398438 6.664062 -41.078125 10 -41.078125 C 12.5 -41.078125 14.269531 -40.632812 15.3125 -39.75 C 16.195312 -39.019531 16.664062 -37.898438 16.71875 -36.390625 C 16.769531 -35.867188 16.796875 -35.113281 16.796875 -34.125 L 16.796875 -6.796875 C 16.796875 -5.597656 16.753906 -4.695312 16.671875 -4.09375 C 16.597656 -3.5 16.351562 -2.8125 15.9375 -2.03125 C 15.257812 -0.675781 13.253906 0 9.921875 0 C 6.640625 0 4.632812 -0.703125 3.90625 -2.109375 C 3.539062 -2.890625 3.316406 -3.566406 3.234375 -4.140625 C 3.160156 -4.710938 3.125 -5.625 3.125 -6.875 Z M 15.96875 -48.765625 C 15.582031 -48.015625 14.894531 -47.484375 13.90625 -47.171875 C 12.914062 -46.859375 11.597656 -46.703125 9.953125 -46.703125 C 8.316406 -46.703125 7.003906 -46.859375 6.015625 -47.171875 C 5.023438 -47.484375 4.332031 -48.03125 3.9375 -48.8125 C 3.550781 -49.59375 3.316406 -50.28125 3.234375 -50.875 C 3.160156 -51.476562 3.125 -52.378906 3.125 -53.578125 C 3.125 -54.773438 3.160156 -55.671875 3.234375 -56.265625 C 3.316406 -56.867188 3.539062 -57.535156 3.90625 -58.265625 C 4.632812 -59.660156 6.664062 -60.359375 10 -60.359375 C 13.28125 -60.359375 15.257812 -59.660156 15.9375 -58.265625 C 16.351562 -57.484375 16.597656 -56.789062 16.671875 -56.1875 C 16.753906 -55.59375 16.796875 -54.695312 16.796875 -53.5 C 16.796875 -52.300781 16.753906 -51.398438 16.671875 -50.796875 C 16.597656 -50.203125 16.363281 -49.523438 15.96875 -48.765625 Z M 15.96875 -48.765625 "/></g></g></g><g fill="#fefffe" fill-opacity="1"><g transform="translate(257.108135, 249.749984)"><g><path d="M 27.015625 -27.328125 L 21.9375 -27.640625 L 21.9375 -16.875 C 21.9375 -15.46875 22.15625 -14.453125 22.59375 -13.828125 C 23.039062 -13.203125 23.875 -12.890625 25.09375 -12.890625 C 26.320312 -12.890625 27.257812 -12.847656 27.90625 -12.765625 C 28.5625 -12.691406 29.253906 -12.445312 29.984375 -12.03125 C 31.179688 -11.351562 31.78125 -9.609375 31.78125 -6.796875 C 31.78125 -3.515625 31.050781 -1.507812 29.59375 -0.78125 C 28.8125 -0.414062 28.117188 -0.191406 27.515625 -0.109375 C 26.921875 -0.0351562 26.050781 0 24.90625 0 C 19.5 0 15.390625 -1.222656 12.578125 -3.671875 C 9.765625 -6.117188 8.359375 -10.257812 8.359375 -16.09375 L 8.359375 -27.640625 C 7.367188 -27.484375 6.300781 -27.40625 5.15625 -27.40625 C 4.007812 -27.40625 3.054688 -27.847656 2.296875 -28.734375 C 1.546875 -29.617188 1.171875 -31.128906 1.171875 -33.265625 C 1.171875 -35.398438 1.300781 -36.945312 1.5625 -37.90625 C 1.820312 -38.875 2.1875 -39.566406 2.65625 -39.984375 C 3.488281 -40.660156 4.53125 -41 5.78125 -41 L 8.359375 -40.6875 L 8.359375 -48.734375 C 8.359375 -49.929688 8.394531 -50.816406 8.46875 -51.390625 C 8.550781 -51.960938 8.800781 -52.585938 9.21875 -53.265625 C 9.894531 -54.566406 11.898438 -55.21875 15.234375 -55.21875 C 18.765625 -55.21875 20.867188 -54.253906 21.546875 -52.328125 C 21.804688 -51.492188 21.9375 -50.164062 21.9375 -48.34375 L 21.9375 -40.6875 C 24.226562 -40.894531 25.957031 -41 27.125 -41 C 28.300781 -41 29.1875 -40.957031 29.78125 -40.875 C 30.382812 -40.800781 31.078125 -40.554688 31.859375 -40.140625 C 33.210938 -39.460938 33.890625 -37.457031 33.890625 -34.125 C 33.890625 -30.84375 33.1875 -28.835938 31.78125 -28.109375 C 31 -27.742188 30.304688 -27.519531 29.703125 -27.4375 C 29.109375 -27.363281 28.210938 -27.328125 27.015625 -27.328125 Z M 27.015625 -27.328125 "/></g></g></g><g fill="#fefffe" fill-opacity="1"><g transform="translate(293.338376, 249.749984)"><g><path d="M 29.828125 -36.78125 C 30.140625 -39.695312 32.195312 -41.15625 36 -41.15625 C 38.03125 -41.15625 39.539062 -41 40.53125 -40.6875 C 41.519531 -40.375 42.207031 -39.828125 42.59375 -39.046875 C 42.988281 -38.265625 43.222656 -37.570312 43.296875 -36.96875 C 43.378906 -36.375 43.421875 -35.476562 43.421875 -34.28125 L 43.421875 -6.953125 C 43.421875 -5.753906 43.378906 -4.851562 43.296875 -4.25 C 43.222656 -3.65625 43.003906 -2.96875 42.640625 -2.1875 C 41.910156 -0.832031 40.125 -0.15625 37.28125 -0.15625 C 34.445312 -0.15625 32.546875 -0.503906 31.578125 -1.203125 C 30.617188 -1.910156 30.0625 -2.941406 29.90625 -4.296875 C 27.976562 -1.535156 24.765625 -0.15625 20.265625 -0.15625 C 15.765625 -0.15625 11.585938 -2.210938 7.734375 -6.328125 C 3.878906 -10.441406 1.953125 -15.21875 1.953125 -20.65625 C 1.953125 -26.09375 3.890625 -30.851562 7.765625 -34.9375 C 11.648438 -39.03125 15.90625 -41.078125 20.53125 -41.078125 C 22.300781 -41.078125 23.914062 -40.765625 25.375 -40.140625 C 26.832031 -39.515625 27.847656 -38.925781 28.421875 -38.375 C 28.992188 -37.832031 29.460938 -37.300781 29.828125 -36.78125 Z M 15.625 -20.53125 C 15.625 -18.820312 16.296875 -17.273438 17.640625 -15.890625 C 18.992188 -14.515625 20.632812 -13.828125 22.5625 -13.828125 C 24.488281 -13.828125 26.085938 -14.53125 27.359375 -15.9375 C 28.640625 -17.34375 29.28125 -18.890625 29.28125 -20.578125 C 29.28125 -22.265625 28.664062 -23.835938 27.4375 -25.296875 C 26.21875 -26.753906 24.582031 -27.484375 22.53125 -27.484375 C 20.476562 -27.484375 18.8125 -26.753906 17.53125 -25.296875 C 16.257812 -23.835938 15.625 -22.25 15.625 -20.53125 Z M 15.625 -20.53125 "/></g></g></g><g fill="#fefffe" fill-opacity="1"><g transform="translate(341.043894, 249.749984)"><g/></g></g></svg>